<?xml version="1.0" encoding="UTF-8" standalone="no"?>
<svg
   height="40"
   viewBox="0 96 960 960"
   width="40"
   version="1.1"
   id="svg834"
   sodipodi:docname="add_image2.svg"
   inkscape:version="1.1.1 (3bf5ae0d25, 2021-09-20)"
   xmlns:inkscape="http://www.inkscape.org/namespaces/inkscape"
   xmlns:sodipodi="http://sodipodi.sourceforge.net/DTD/sodipodi-0.dtd"
   xmlns="http://www.w3.org/2000/svg"
   xmlns:svg="http://www.w3.org/2000/svg">
  <defs
     id="defs838" />
  <sodipodi:namedview
     id="namedview836"
     pagecolor="#ffffff"
     bordercolor="#666666"
     borderopacity="1.0"
     inkscape:pageshadow="2"
     inkscape:pageopacity="0.0"
     inkscape:pagecheckerboard="0"
     showgrid="false"
     inkscape:zoom="20.025"
     inkscape:cx="20"
     inkscape:cy="20"
     inkscape:window-width="1920"
     inkscape:window-height="1009"
     inkscape:window-x="1672"
     inkscape:window-y="-8"
     inkscape:window-maximized="1"
     inkscape:current-layer="svg834" />
  <path
     d="M208 884q-22.583 0-39.292-16.708Q152 850.583 152 828V324q0-22.583 16.708-39.292Q185.417 268 208 268h338v24H208q-14 0-23 9t-9 23v504q0 14 9 23t23 9h504q14 0 23-9t9-23V490.667h24V828q0 22.583-16.708 39.292Q734.583 884 712 884H208Zm496-471.333V332h-80v-24h80v-80h24v80h80v24h-80v80.667h-24ZM298 749.333h332l-100.667-134L428 740.667 363.333 666 298 749.333ZM176 292v568-568Z"
     id="path832" />
  <path
     style="fill:none;stroke-width:0.0499376"
     d="M 8.3723407,32.780201 C 7.5311538,32.67109 6.7229017,31.978076 6.4657211,31.145423 6.3687255,30.831387 6.3670412,30.641148 6.3670412,20 c 0,-10.6411479 0.00168,-10.8313874 0.09868,-11.1454225 0.26438,-0.8559631 1.0572641,-1.5211501 1.951497,-1.6372009 0.2232361,-0.028971 3.1603268,-0.048866 7.3505718,-0.049792 l 6.978777,-0.00154 V 7.6654182 8.164794 H 15.514572 8.2825783 L 8.0117945,8.3021223 C 7.7100392,8.4551579 7.4496651,8.7586499 7.3680703,9.0524472 c -0.071955,0.2590858 -0.071955,21.6360198 0,21.8951058 0.079052,0.284642 0.3426636,0.592316 0.6410419,0.74819 l 0.2669619,0.139463 10.8931739,-0.0011 c 10.441797,-0.0011 10.901497,-0.0049 11.094032,-0.09234 0.262977,-0.119462 0.514015,-0.374942 0.643679,-0.655066 0.10402,-0.224724 0.10431,-0.243037 0.117585,-7.428775 l 0.01331,-7.203496 h 0.473583 0.473584 v 7.08432 c 0,4.609846 -0.0178,7.178199 -0.05097,7.353092 -0.18361,0.968173 -1.028096,1.764653 -2.005594,1.891582 -0.45219,0.05872 -21.102389,0.05563 -21.5561123,-0.0032 z"
     id="path1270"
     transform="matrix(24,0,0,24,0,96)" />
  <path
     style="fill:#fa8072;stroke-width:0.0499376;fill-opacity:1"
     d="M 8.3723407,32.780201 C 7.5311538,32.67109 6.7229017,31.978076 6.4657211,31.145423 6.3687255,30.831387 6.3670412,30.641148 6.3670412,20 c 0,-10.6411479 0.00168,-10.8313874 0.09868,-11.1454225 0.26438,-0.8559631 1.0572641,-1.5211501 1.951497,-1.6372009 0.2232361,-0.028971 3.1603268,-0.048866 7.3505718,-0.049792 l 6.978777,-0.00154 V 7.6654182 8.164794 H 15.514572 8.2825783 L 8.0117945,8.3021223 C 7.7100392,8.4551579 7.4496651,8.7586499 7.3680703,9.0524472 c -0.071955,0.2590858 -0.071955,21.6360198 0,21.8951058 0.079052,0.284642 0.3426636,0.592316 0.6410419,0.74819 l 0.2669619,0.139463 10.8931739,-0.0011 c 10.441797,-0.0011 10.901497,-0.0049 11.094032,-0.09234 0.262977,-0.119462 0.514015,-0.374942 0.643679,-0.655066 0.10402,-0.224724 0.10431,-0.243037 0.117585,-7.428775 l 0.01331,-7.203496 h 0.473583 0.473584 v 7.08432 c 0,4.609846 -0.0178,7.178199 -0.05097,7.353092 -0.18361,0.968173 -1.028096,1.764653 -2.005594,1.891582 -0.45219,0.05872 -21.102389,0.05563 -21.5561123,-0.0032 z"
     id="path1346"
     transform="matrix(24,0,0,24,0,96)" />
  <path
     style="fill:#fa8072;fill-opacity:1;stroke-width:0.0499376"
     d="m 12.541514,27.128589 c 0.02093,-0.03433 0.609774,-0.792759 1.308554,-1.685393 0.698779,-0.892634 1.274893,-1.628737 1.280253,-1.635785 0.0054,-0.007 0.612884,0.685036 1.350052,1.537964 l 1.340306,1.550777 0.109204,-0.114743 c 0.06006,-0.06311 0.968883,-1.182158 2.019601,-2.486777 1.050719,-1.30462 1.958216,-2.42023 2.016661,-2.479136 l 0.106264,-0.1071 2.059345,2.741308 2.059345,2.741307 h -6.843815 c -5.462051,0 -6.836134,-0.0126 -6.80577,-0.06242 z"
     id="path1422"
     transform="matrix(24,0,0,24,0,96)" />
  <path
     style="fill:#fa8072;fill-opacity:1;stroke-width:0.0499376"
     d="M 29.338327,11.485643 V 9.8127341 h -1.64794 -1.64794 v -0.474407 -0.474407 h 1.64794 1.64794 V 7.1910112 5.5181024 h 0.474407 0.474407 v 1.6729088 1.6729089 h 1.672909 1.672909 v 0.474407 0.474407 H 31.96005 30.287141 v 1.6729089 1.672909 h -0.474407 -0.474407 z"
     id="path1461"
     transform="matrix(24,0,0,24,0,96)" />
</svg>
